{"title":"pure luck dvdrip (1991)","uid":5901362,"size":734306363,"categoryP":"video","categoryS":"movies","magnet":"?xt=urn:btih:a924158c03d052ad5ac7e6e2cd910411b24d1bc9&amp;dn=pure+luck+dvdrip+%281991%29&amp;tr=udp%3A%2F%2Ftracker.openbittorrent.com%3A80&amp;tr=udp%3A%2F%2Fopen.demonii.com%3A1337&amp;tr=udp%3A%2F%2Ftracker.coppersurfer.tk%3A6969&amp;tr=udp%3A%2F%2Fexodus.desync.com%3A6969","seeders":7,"leechers":1,"uploader":"ZeNiTH_NL","files":-1,"time":1287685973,"description":"Pure Luck dvdrip (1991)\n\nHave not uploaded something for a while, so here you go! \nIt is not my release this time, so thanks go out to the team that released it!\n\nGeneral\nFormat                           : AVI\nFile size                        : 700 MiB\nDuration                         : 1h 35mn\nOverall bit rate                 : 1020 Kbps\n\nVideo\nDuration                         : 1h 35mn\nBit rate                         : 876 Kbps\nWidth                            : 624 pixels\nHeight                           : 336 pixels\nDisplay aspect ratio             : 1.857\nFrame rate                       : 23.976 fps\nResolution                       : 8 bits\nColorimetry                      : 4:2:0\nScan type                        : Progressive\nBits/(Pixel*Frame)               : 0.174\nStream size                      : 601 MiB (86%)\nWriting library                  : XviD 1.2.1 (UTC 2008-12-04)\n\nAudio\nID                               : 1\nFormat                           : MPEG Audio\nFormat version                   : Version 1\nFormat profile                   : Layer 3\nMode                             : Joint stereo\nCodec ID                         : 55\nCodec ID/Hint                    : MP3\nDuration                         : 1h 35mn\nBit rate mode                    : Variable\nBit rate                         : 131 Kbps\nNominal bit rate                 : 128 Kbps\nChannel(s)                       : 2 channels\nSampling rate                    : 48.0 KHz\nStream size                      : 90.1 MiB (13%)\nAlignment                        : Aligned on interleaves\nInterleave, duration             : 24 ms (0.58 video frame)\nInterleave, preload duration     : 190 ms\nWriting library                  : LAME3.90.\n\n\nI also added a srt subtitle file (english).\n\nHope you like it! I will seed as much as possible. \nIf you want to thank me, seed for a few days. \n\nEnjoy!\n\nFriendly greetings,\nZeNiTH_NL\t","torrent":{"xt":"urn:btih:a924158c03d052ad5ac7e6e2cd910411b24d1bc9","amp;dn":"pure+luck+dvdrip+%281991%29","amp;tr":["udp%3A%2F%2Ftracker.openbittorrent.com%3A80","udp%3A%2F%2Fopen.demonii.com%3A1337","udp%3A%2F%2Ftracker.coppersurfer.tk%3A6969","udp%3A%2F%2Fexodus.desync.com%3A6969"],"infoHash":"a924158c03d052ad5ac7e6e2cd910411b24d1bc9","infoHashBuffer":{"type":"Buffer","data":[169,36,21,140,3,208,82,173,90,199,230,226,205,145,4,17,178,77,27,201]},"announce":[],"urlList":[]}}